<?xml version="1.0" encoding="utf-8"?>
<!-- Generator: Adobe Illustrator 22.1.0, SVG Export Plug-In . SVG Version: 6.00 Build 0)  -->
<svg version="1.1" id="Layer_3" xmlns="http://www.w3.org/2000/svg" xmlns:xlink="http://www.w3.org/1999/xlink" x="0px" y="0px"
	 viewBox="0 0 174.8 49.4" style="enable-background:new 0 0 174.8 49.4;" xml:space="preserve">
<style type="text/css">
	.st0{fill:#009C49;}
	.st1{fill:#E73337;}
	.st2{fill:#F9AF0A;}
	.st3{fill:#1C71B8;}
	.st4{fill:#767375;}
	.st5{fill:#706F6F;}
	.st6{fill:#ACADB0;}
</style>
<circle class="st0" cx="60.2" cy="37.1" r="1.3"/>
<circle class="st1" cx="56.4" cy="40.1" r="2.6"/>
<circle class="st2" cx="56.4" cy="46.5" r="3"/>
<circle class="st3" cx="47.9" cy="37.5" r="5.1"/>
<path class="st4" d="M65.5,45.4l3-7.9h1.1l3,7.9h-1.1l-0.8-2.1h-3.3l-0.8,2.1H65.5z M67.8,42.4h2.6l-1.3-3.6h0L67.8,42.4z"/>
<path class="st4" d="M75.4,45.6c-0.6,0-1.1-0.1-1.5-0.4c-0.4-0.3-0.7-0.7-0.9-1.1l0.9-0.4c0.3,0.7,0.8,1,1.5,1
	c0.3,0,0.6-0.1,0.8-0.2c0.2-0.1,0.3-0.3,0.3-0.5c0-0.4-0.2-0.6-0.7-0.7L74.6,43c-0.3-0.1-0.7-0.3-1-0.5c-0.3-0.2-0.5-0.6-0.5-1
	c0-0.5,0.2-0.9,0.6-1.2c0.4-0.3,0.9-0.4,1.5-0.4c0.5,0,0.9,0.1,1.3,0.3c0.4,0.2,0.6,0.5,0.8,0.9l-0.9,0.4c-0.2-0.5-0.6-0.7-1.2-0.7
	c-0.3,0-0.6,0.1-0.8,0.2c-0.2,0.1-0.3,0.3-0.3,0.5c0,0.3,0.2,0.5,0.7,0.6l1.1,0.3c0.5,0.1,0.9,0.3,1.1,0.6c0.2,0.3,0.4,0.6,0.4,1
	c0,0.5-0.2,0.9-0.6,1.2C76.5,45.5,76,45.6,75.4,45.6z"/>
<path class="st4" d="M79.4,38.7c-0.1,0.1-0.3,0.2-0.5,0.2c-0.2,0-0.4-0.1-0.5-0.2c-0.1-0.1-0.2-0.3-0.2-0.5c0-0.2,0.1-0.4,0.2-0.5
	c0.1-0.1,0.3-0.2,0.5-0.2c0.2,0,0.4,0.1,0.5,0.2c0.1,0.1,0.2,0.3,0.2,0.5C79.6,38.4,79.6,38.6,79.4,38.7z M79.4,45.4h-1v-5.4h1V45.4
	z"/>
<path class="st4" d="M82.7,45.6c-0.6,0-1.1-0.1-1.5-0.4c-0.4-0.3-0.7-0.7-0.9-1.1l0.9-0.4c0.3,0.7,0.8,1,1.5,1
	c0.3,0,0.6-0.1,0.8-0.2c0.2-0.1,0.3-0.3,0.3-0.5c0-0.4-0.2-0.6-0.7-0.7L82,43c-0.3-0.1-0.7-0.3-1-0.5c-0.3-0.2-0.5-0.6-0.5-1
	c0-0.5,0.2-0.9,0.6-1.2c0.4-0.3,0.9-0.4,1.5-0.4c0.5,0,0.9,0.1,1.3,0.3c0.4,0.2,0.6,0.5,0.8,0.9l-0.9,0.4c-0.2-0.5-0.6-0.7-1.2-0.7
	c-0.3,0-0.6,0.1-0.8,0.2c-0.2,0.1-0.3,0.3-0.3,0.5c0,0.3,0.2,0.5,0.7,0.6l1.1,0.3c0.5,0.1,0.9,0.3,1.1,0.6c0.2,0.3,0.4,0.6,0.4,1
	c0,0.5-0.2,0.9-0.6,1.2C83.9,45.5,83.4,45.6,82.7,45.6z"/>
<path class="st4" d="M88,45.5c-0.6,0-1-0.2-1.3-0.5c-0.3-0.3-0.4-0.7-0.4-1.3V41h-0.9v-0.9h0.9v-1.6h1v1.6h1.3V41h-1.3v2.7
	c0,0.6,0.2,0.9,0.7,0.9c0.2,0,0.3,0,0.5-0.1l0.4,0.9C88.6,45.5,88.3,45.5,88,45.5z"/>
<path class="st4" d="M96.4,40.1v0.7h0c0.1-0.3,0.4-0.5,0.7-0.7c0.3-0.2,0.7-0.3,1-0.3c0.7,0,1.2,0.2,1.5,0.6c0.4,0.4,0.5,1,0.5,1.6
	v3.3h-1v-3.1c0-1-0.4-1.5-1.3-1.5c-0.4,0-0.8,0.2-1,0.5c-0.3,0.3-0.4,0.7-0.4,1.2v3h-1v-5.4H96.4z"/>
<path class="st4" d="M103.4,45.5c-0.6,0-1-0.2-1.3-0.5c-0.3-0.3-0.4-0.7-0.4-1.3V41h-0.9v-0.9h0.9v-1.6h1v1.6h1.3V41h-1.3v2.7
	c0,0.6,0.2,0.9,0.7,0.9c0.2,0,0.3,0,0.5-0.1l0.4,0.9C104,45.5,103.8,45.5,103.4,45.5z"/>
<path class="st4" d="M115.5,45.6c-0.7,0-1.3-0.3-1.8-0.8c-0.5-0.5-0.8-1.2-0.8-2c0-0.8,0.3-1.5,0.8-2c0.5-0.5,1.1-0.8,1.8-0.8
	c0.4,0,0.8,0.1,1.1,0.3c0.3,0.2,0.6,0.4,0.7,0.7h0l0-0.7v-2.5h1v7.9h-1v-0.7h0c-0.2,0.3-0.4,0.5-0.7,0.7S115.9,45.6,115.5,45.6z
	 M115.7,44.7c0.5,0,0.9-0.2,1.2-0.5c0.3-0.4,0.5-0.8,0.5-1.4c0-0.6-0.2-1.1-0.5-1.4c-0.3-0.4-0.7-0.5-1.2-0.5
	c-0.5,0-0.9,0.2-1.2,0.5c-0.3,0.4-0.5,0.8-0.5,1.4c0,0.6,0.2,1.1,0.5,1.4C114.8,44.5,115.2,44.7,115.7,44.7z"/>
<path class="st4" d="M94.4,44.3c0,0-0.1,0.1-0.1,0.1c-0.3,0.4-0.7,0.7-1.2,1c-0.8,0.3-1.5,0.3-2.1,0c-0.7-0.3-1.2-0.8-1.5-1.6
	c-0.3-0.7-0.3-1.4-0.1-2.2s0.7-1.2,1.4-1.5c0.7-0.3,1.4-0.3,2.1,0c0.6,0.3,1.1,0.9,1.5,1.7l0.1,0.2l-3.9,1.6c0.2,0.5,0.6,0.8,1,1
	c0.4,0.2,0.8,0.2,1.3,0c0.4-0.2,0.7-0.4,0.9-0.8L94.4,44.3z M93.1,41.6c-0.1-0.3-0.4-0.5-0.7-0.7c-0.3-0.2-0.8-0.1-1.2,0.1
	c-0.3,0.1-0.6,0.4-0.8,0.7c-0.2,0.3-0.2,0.7-0.2,1.1L93.1,41.6z"/>
<path class="st4" d="M109.8,44.3c0,0-0.1,0.1-0.1,0.1c-0.3,0.4-0.7,0.7-1.2,1c-0.8,0.3-1.5,0.3-2.1,0c-0.7-0.3-1.2-0.8-1.5-1.6
	c-0.3-0.7-0.3-1.4-0.1-2.2s0.7-1.2,1.4-1.5c0.7-0.3,1.4-0.3,2.1,0c0.6,0.3,1.1,0.9,1.5,1.7l0.1,0.2l-3.9,1.6c0.2,0.5,0.6,0.8,1,1
	c0.4,0.2,0.8,0.2,1.3,0c0.4-0.2,0.7-0.4,0.9-0.8L109.8,44.3z M108.5,41.6c-0.1-0.3-0.4-0.5-0.7-0.7c-0.3-0.2-0.8-0.1-1.2,0.1
	c-0.3,0.1-0.6,0.4-0.8,0.7c-0.2,0.3-0.2,0.7-0.2,1.1L108.5,41.6z"/>
<path class="st4" d="M124.3,44.3c0,0-0.1,0.1-0.1,0.1c-0.3,0.4-0.7,0.7-1.2,1c-0.8,0.3-1.5,0.3-2.1,0c-0.7-0.3-1.2-0.8-1.5-1.6
	c-0.3-0.7-0.3-1.4-0.1-2.2c0.2-0.7,0.7-1.2,1.4-1.5c0.7-0.3,1.4-0.3,2.1,0c0.6,0.3,1.1,0.9,1.5,1.7l0.1,0.2l-3.9,1.6
	c0.2,0.5,0.6,0.8,1,1c0.4,0.2,0.8,0.2,1.3,0c0.4-0.2,0.7-0.4,0.9-0.8L124.3,44.3z M123,41.6c-0.1-0.3-0.4-0.5-0.7-0.7
	c-0.3-0.2-0.8-0.1-1.2,0.1c-0.3,0.1-0.6,0.4-0.8,0.7c-0.2,0.3-0.2,0.7-0.2,1.1L123,41.6z"/>
<path class="st5" d="M127.4,41.4c0-2.5,2.1-4.4,4.5-4.4c1.4,0,2.3,0.5,3,1.2l-0.9,0.9c-0.5-0.5-1.2-0.9-2.2-0.9
	c-1.8,0-3.2,1.4-3.2,3.2c0,1.8,1.4,3.2,3.2,3.2c1.2,0,1.8-0.5,2.2-0.9c0.3-0.3,0.6-0.8,0.7-1.5H132V41h4.1c0,0.2,0.1,0.5,0.1,0.8
	c0,0.9-0.2,2-1.1,2.8c-0.8,0.8-1.8,1.2-3.1,1.2C129.5,45.8,127.4,43.8,127.4,41.4z"/>
<path class="st5" d="M139.4,40.1c-1.6,0-2.9,1.2-2.9,2.9c0,1.6,1.3,2.9,2.9,2.9c1.6,0,2.9-1.2,2.9-2.9
	C142.3,41.3,141,40.1,139.4,40.1z M139.4,44.7c-0.9,0-1.6-0.7-1.6-1.7c0-1,0.7-1.7,1.6-1.7c0.9,0,1.6,0.7,1.6,1.7
	C141,44,140.3,44.7,139.4,44.7z"/>
<path class="st5" d="M145.7,40.1c-1.6,0-2.9,1.2-2.9,2.9c0,1.6,1.3,2.9,2.9,2.9c1.6,0,2.9-1.2,2.9-2.9
	C148.6,41.3,147.3,40.1,145.7,40.1z M145.7,44.7c-0.9,0-1.6-0.7-1.6-1.7c0-1,0.7-1.7,1.6-1.7s1.6,0.7,1.6,1.7
	C147.3,44,146.6,44.7,145.7,44.7z"/>
<path class="st5" d="M153.4,40.2v0.5h0c-0.3-0.3-0.8-0.6-1.5-0.6c-1.4,0-2.7,1.3-2.7,2.9c0,1.6,1.3,2.9,2.7,2.9
	c0.7,0,1.2-0.3,1.5-0.7h0v0.4c0,1.1-0.6,1.7-1.5,1.7c-0.8,0-1.2-0.6-1.4-1l-1.1,0.5c0.3,0.8,1.1,1.7,2.5,1.7c1.5,0,2.7-0.9,2.7-3
	v-5.1H153.4z M151.9,44.7c-0.9,0-1.6-0.7-1.6-1.7c0-1,0.7-1.7,1.6-1.7c0.9,0,1.5,0.7,1.5,1.7C153.5,43.9,152.8,44.7,151.9,44.7z"/>
<rect x="155.4" y="37.2" class="st5" width="1.3" height="8.4"/>
<path class="st5" d="M160.2,44.7c-0.6,0-1.1-0.3-1.4-0.9l3.8-1.6l-0.1-0.3c-0.2-0.6-1-1.8-2.5-1.8c-1.5,0-2.7,1.2-2.7,2.9
	c0,1.6,1.2,2.9,2.8,2.9c1.3,0,2.1-0.8,2.4-1.3l-1-0.7C161.2,44.4,160.8,44.7,160.2,44.7z M160.1,41.2c0.5,0,0.9,0.2,1.1,0.6
	l-2.6,1.1C158.5,41.7,159.4,41.2,160.1,41.2z"/>
<path class="st6" d="M23.5,44.6c0.3,0,0.5-0.1,0.7-0.2c0.2-0.2,0.3-0.4,0.3-0.7H26c0,0.4-0.1,0.8-0.3,1.1s-0.5,0.6-0.9,0.8
	c-0.4,0.2-0.8,0.3-1.3,0.3c-0.9,0-1.6-0.3-2.1-0.8c-0.5-0.6-0.8-1.3-0.8-2.3v-0.1c0-0.9,0.2-1.7,0.7-2.2c0.5-0.6,1.2-0.8,2-0.8
	c0.8,0,1.4,0.2,1.8,0.6c0.5,0.4,0.7,1,0.7,1.7h-1.5c0-0.3-0.1-0.6-0.3-0.8s-0.4-0.3-0.7-0.3c-0.4,0-0.7,0.1-0.9,0.4
	c-0.2,0.3-0.3,0.7-0.3,1.3v0.2c0,0.6,0.1,1.1,0.3,1.3C22.8,44.5,23.1,44.6,23.5,44.6z"/>
<path class="st6" d="M26.7,42.7c0-0.6,0.1-1.1,0.3-1.6s0.6-0.8,1-1.1s0.9-0.4,1.5-0.4c0.8,0,1.5,0.3,2,0.8c0.5,0.5,0.8,1.2,0.9,2
	l0,0.4c0,0.9-0.3,1.7-0.8,2.2c-0.5,0.6-1.2,0.8-2.1,0.8s-1.6-0.3-2.1-0.8S26.7,43.7,26.7,42.7L26.7,42.7z M28.3,42.8
	c0,0.6,0.1,1,0.3,1.3c0.2,0.3,0.5,0.5,0.9,0.5c0.4,0,0.7-0.2,0.9-0.5c0.2-0.3,0.3-0.8,0.3-1.4c0-0.6-0.1-1-0.3-1.3
	c-0.2-0.3-0.5-0.5-0.9-0.5c-0.4,0-0.7,0.2-0.9,0.5C28.4,41.7,28.3,42.2,28.3,42.8z"/>
<path class="st6" d="M34.9,39.7l0.1,0.7c0.4-0.5,1-0.8,1.7-0.8c0.6,0,1.1,0.2,1.4,0.6c0.3,0.4,0.5,0.9,0.5,1.7v3.9H37v-3.9
	c0-0.3-0.1-0.6-0.2-0.7s-0.4-0.2-0.7-0.2c-0.5,0-0.8,0.2-1,0.6v4.3h-1.6v-6.1H34.9z"/>
<path class="st6" d="M39.3,15.8c0,4.3-3.4,7.5-7.5,7.5s-7.5-3.2-7.5-7.5c0-4.4,3.4-7.5,7.5-7.5S39.3,11.5,39.3,15.8z M36,15.8
	c0-2.7-2-4.6-4.2-4.6c-2.3,0-4.2,1.8-4.2,4.6c0,2.7,2,4.6,4.2,4.6C34.1,20.4,36,18.5,36,15.8z"/>
<path class="st6" d="M55.9,15.8c0,4.3-3.4,7.5-7.5,7.5s-7.5-3.2-7.5-7.5c0-4.4,3.4-7.5,7.5-7.5S55.9,11.5,55.9,15.8z M52.6,15.8
	c0-2.7-2-4.6-4.2-4.6c-2.3,0-4.2,1.8-4.2,4.6c0,2.7,2,4.6,4.2,4.6C50.6,20.4,52.6,18.5,52.6,15.8z"/>
<path class="st6" d="M71.8,8.8v13.5c0,5.5-3.3,7.8-7.1,7.8c-3.6,0-5.8-2.4-6.7-4.4l2.9-1.2c0.5,1.2,1.8,2.7,3.8,2.7
	c2.5,0,4-1.5,4-4.4v-1.1h-0.1c-0.7,0.9-2.2,1.7-4,1.7c-3.8,0-7.2-3.3-7.2-7.5c0-4.2,3.4-7.5,7.2-7.5c1.8,0,3.2,0.8,4,1.7h0.1V8.8
	H71.8z M68.9,15.8c0-2.6-1.8-4.6-4-4.6c-2.3,0-4.2,1.9-4.2,4.6c0,2.6,1.9,4.5,4.2,4.5C67.1,20.4,68.9,18.5,68.9,15.8z"/>
<path class="st6" d="M77.7,0.9v21.9h-3.3V0.9H77.7z"/>
<path class="st6" d="M90.6,18.3l2.6,1.7c-0.8,1.2-2.8,3.3-6.3,3.3c-4.3,0-7.5-3.3-7.5-7.5c0-4.5,3.2-7.5,7.1-7.5
	c3.9,0,5.8,3.1,6.4,4.8l0.3,0.9l-10,4.2c0.8,1.5,2,2.3,3.6,2.3C88.6,20.4,89.7,19.5,90.6,18.3z M82.7,15.6l6.7-2.8
	c-0.4-0.9-1.5-1.6-2.8-1.6C85,11.2,82.6,12.7,82.7,15.6z"/>
<path class="st6" d="M22.6,10.6c0.1,0.7,0.2,1.4,0.2,2c0,2.4-0.7,5.3-2.8,7.5c-2,2.1-4.7,3.3-8.1,3.3C5.4,23.3,0,18.1,0,11.7
	S5.4,0,11.8,0c3.6,0,6.1,1.4,8,3.2l-2.2,2.2c-1.4-1.3-3.2-2.3-5.7-2.3c-4.7,0-8.4,3.8-8.4,8.5c0,4.7,3.7,8.5,8.4,8.5
	c3,0,4.8-1.2,5.9-2.3c0.9-0.9,1.5-2.3,1.8-4.1h-7.6v-3.2L22.6,10.6z"/>
<path class="st6" d="M103.2,3.1h3.1v8.2h9.2V3.1h3.1v19.8h-3.1v-8.7h-9.2v8.7h-3.1V3.1z"/>
<path class="st6" d="M124.3,22.3c-1.1-0.7-2-1.6-2.6-2.7c-0.6-1.1-0.9-2.4-0.9-3.8c0-1.4,0.3-2.7,0.9-3.8c0.6-1.1,1.5-2,2.6-2.7
	c1.1-0.7,2.4-1,3.8-1c1.4,0,2.7,0.3,3.8,1c1.1,0.7,2,1.6,2.6,2.7c0.6,1.1,0.9,2.4,0.9,3.8c0,1.4-0.3,2.7-0.9,3.8
	c-0.6,1.1-1.5,2-2.6,2.7c-1.1,0.7-2.4,1-3.8,1C126.7,23.3,125.4,23,124.3,22.3z M130.2,20c0.7-0.4,1.2-0.9,1.6-1.6
	c0.4-0.7,0.6-1.5,0.6-2.5s-0.2-1.8-0.6-2.5s-0.9-1.2-1.6-1.6c-0.7-0.4-1.4-0.6-2.2-0.6c-0.8,0-1.5,0.2-2.2,0.6
	c-0.7,0.4-1.2,0.9-1.6,1.6c-0.4,0.7-0.6,1.5-0.6,2.5s0.2,1.8,0.6,2.5c0.4,0.7,0.9,1.3,1.6,1.6c0.7,0.4,1.4,0.6,2.2,0.6
	C128.9,20.5,129.6,20.3,130.2,20z"/>
<path class="st6" d="M137.6,8.8h2.9v1.9h0.1c0.4-0.7,1-1.2,1.8-1.7c0.8-0.4,1.6-0.6,2.5-0.6c1,0,1.9,0.2,2.7,0.7
	c0.8,0.5,1.3,1.1,1.6,1.9c0.5-0.8,1.1-1.4,1.9-1.9c0.8-0.5,1.7-0.7,2.8-0.7c1.6,0,2.9,0.5,3.7,1.5c0.8,1,1.3,2.3,1.3,4v9h-3v-8.5
	c0-2.1-0.9-3.2-2.7-3.2c-1,0-1.8,0.4-2.4,1.2c-0.6,0.8-0.9,1.8-0.9,2.9v7.6h-3v-8.5c0-2.1-0.9-3.2-2.8-3.2c-1,0-1.7,0.4-2.4,1.2
	c-0.6,0.8-0.9,1.8-0.9,2.9v7.6h-3V8.8z"/>
<path class="st6" d="M164.4,22.3c-1.1-0.6-2-1.5-2.6-2.7c-0.6-1.1-0.9-2.4-0.9-3.8c0-1.3,0.3-2.6,0.9-3.7c0.6-1.2,1.4-2.1,2.5-2.8
	c1.1-0.7,2.3-1,3.7-1c1.4,0,2.7,0.3,3.7,0.9c1,0.6,1.8,1.5,2.4,2.6c0.5,1.1,0.8,2.3,0.8,3.7c0,0.3,0,0.6-0.1,1h-10.8
	c0.1,1.3,0.6,2.3,1.4,3c0.8,0.7,1.8,1.1,2.9,1.1c0.9,0,1.6-0.2,2.3-0.6c0.6-0.4,1.1-0.9,1.5-1.6l2.6,1.2c-0.7,1.2-1.5,2.1-2.6,2.7
	c-1.1,0.7-2.4,1-3.8,1C166.7,23.3,165.5,23,164.4,22.3z M171.7,14.2c0-0.5-0.2-1-0.5-1.5c-0.3-0.5-0.7-0.9-1.3-1.2
	c-0.6-0.3-1.3-0.5-2.1-0.5c-1,0-1.8,0.3-2.5,0.9c-0.7,0.6-1.1,1.4-1.4,2.3H171.7z"/>
</svg>
