<svg id="Capa_1" data-name="Capa 1" xmlns="http://www.w3.org/2000/svg" viewBox="0 0 844.53 523.62"><defs><style>.cls-1,.cls-2{fill:#606669;}.cls-2{stroke:#616669;stroke-miterlimit:10;}</style></defs><title>smart-home</title><path class="cls-1" d="M6.29,142.12V6.49H69.84q38.7,0,38.7,31.59,0,23.13-25.23,33.1,26.94,5,26.94,30.82,0,40.13-42.4,40.12Zm60.52-21.81q16.68,0,16.69-17.07,0-21.15-25-21.15H51V65.87q31.31-5.22,31.3-26.18,0-11.38-14-11.38H31.43v92Z"/><path class="cls-1" d="M171.23,42.53q45.33,0,45.34,46.29a91.24,91.24,0,0,1-.85,12.33H149.6q0,21.06,30.93,21.06a162.16,162.16,0,0,0,30.16-2.85v19.92q-13.2,2.85-32.06,2.84-54.16,0-54.16-50.93Q124.47,42.53,171.23,42.53ZM149.6,83.7h42.5v-.76q0-20.68-20.87-20.67Q151.31,62.27,149.6,83.7Z"/><path class="cls-1" d="M388.62,135.86q-16.41,7.21-41.07,7.21-71.81,0-71.8-70.66,0-66.87,73-66.87,22.29,0,39.84,6.64V35a94.56,94.56,0,0,0-37.94-7.59q-48.84,0-48.85,45.05,0,48.84,46.1,48.85A62.27,62.27,0,0,0,363.48,119V79.53h25.14Z"/><path class="cls-1" d="M410,142.12V42.53H429.4l3.13,12.71q13.1-12.7,27.7-12.71v20.3q-14,0-25.14,11.67v67.62Z"/><path class="cls-1" d="M469.71,111.11q0-29.69,43.25-29.69a110.69,110.69,0,0,1,20.3,1.9V75.83q0-13.38-19.25-13.38a157.65,157.65,0,0,0-36.23,4.74V47.28A157.7,157.7,0,0,1,514,42.53q44.38,0,44.39,32.83v66.76H543.79l-8.92-8.91a49.55,49.55,0,0,1-28.64,8.91Q469.71,142.12,469.71,111.11ZM513,98.5q-18.12,0-18.11,12.32,0,13.29,15.17,13.28a38.74,38.74,0,0,0,23.24-7.78V100.39A103.1,103.1,0,0,0,513,98.5Z"/><path class="cls-1" d="M582.11,142.12V42.53h19.44l3.13,14.61Q619,42.54,637.31,42.53q35.37,0,35.37,36.8v62.79H647.54V79.33q0-16.5-16.41-16.5-12.23,0-23.89,9.77v69.52Z"/><path class="cls-1" d="M784.6,136.15a176.42,176.42,0,0,1-44.68,6q-48.27,0-48.27-51.78,0-47.81,47.24-47.81a50,50,0,0,1,20.58,4.75V6.49H784.6ZM759.47,68.52q-7.79-5.11-19.55-5.12-23.43,0-23.42,26.28,0,31.18,24.37,31.2a61.36,61.36,0,0,0,18.6-2.76Z"/><path class="cls-1" d="M46.62,310.8a55.33,55.33,0,0,1-25.19-7.12Q8.41,296.27,3.84,284L8.93,282q4,10.77,15.55,17.17a50.86,50.86,0,0,0,22.35,6.2q18.2.72,30.58-9.24,11.49-9.15,12-21.95,1-23.69-40.25-35.26-22.24-6.19-33.53-16.46T5,198.62q.93-19.81,16.67-29.37,12.9-7.94,31.6-7,22.26.91,35.57,15.14l-4.07,3.76Q73,168.54,53,167.62q-17.07-.7-28.55,6.2-13.32,8.13-14,25-1,23.37,40.24,35Q72.94,240,84.23,250.34t10.66,24.08q-.7,15.24-14.12,26-13,10.47-31.5,10.47C48.39,310.9,47.51,310.87,46.62,310.8Z"/><path class="cls-1" d="M247,163.56V309.48h-5.39V169.05L181,309.48h-7L113.29,169.05V309.48H107.8V163.56h9L177.4,303.79,238,163.56Z"/><path class="cls-1" d="M360.82,163.56V309.48h-5.39V270.87H289.28L264.9,309.48h-6.51l27.34-43.18v-.92h.5l64.42-101.82ZM292.74,265.38h62.69V166.31Z"/><path class="cls-1" d="M466.49,309.48l-36.27-69.81h-44.1v69.81h-5.49V163.56h51.31a38.06,38.06,0,0,1,28.25,63.51,36.73,36.73,0,0,1-24,12.39l36.37,70Zm-80.37-75.3h45.82a32.54,32.54,0,0,0,23-55.58,31.3,31.3,0,0,0-23-9.55H386.12Z"/><path class="cls-1" d="M471.44,448a55.18,55.18,0,1,1,39.13,16.27A53.13,53.13,0,0,1,471.44,448Zm2.88-75.36a51.15,51.15,0,1,0,36.25-15.06A49.23,49.23,0,0,0,474.32,372.66Z"/><path class="cls-1" d="M697.76,354.57V463.23h-4V358.65L648.57,463.23h-5.21L598.18,358.65V463.23h-4.09V354.57h6.74L645.93,459,691,354.57Z"/><path class="cls-1" d="M785.21,354.57v4.08H733.76v48.06h41.39v4H733.76v48.44h51.45v4.08H729.67V354.57Z"/><path class="cls-1" d="M424.09,354.5v52.14H360.77l.05-99.28h-5.37V492.82A13.33,13.33,0,0,0,357,519.16c.36,0,.73,0,1.1,0a13.31,13.31,0,0,0,2.62-26.36l-.13-82.19h63.46v52.51h4V354.5Zm-58.3,152a7.6,7.6,0,0,1-2.69,5.24,7.69,7.69,0,0,1-10.84-.87,7.71,7.71,0,0,1,5.85-12.69l.63,0A7.73,7.73,0,0,1,365.79,506.48Z"/><path class="cls-1" d="M828.83,155.16a11.16,11.16,0,0,0-10.79,8.4h-348v5.49H515V309.48h5.48V169.05H818a11.16,11.16,0,1,0,10.81-13.89Zm0,17.51a6.34,6.34,0,1,1,6.33-6.33A6.35,6.35,0,0,1,828.83,172.67Z"/><path id="_0" data-name="0" class="cls-2" d="M814,457.72V442h6.7c2.72,0,4.41.22,5.5,1.93a4.69,4.69,0,0,1-.36,5.41,5,5,0,0,1-3.11,1.45c2,1.15,2.32,2,5.43,7h-3.8c-4.59-6.84-4-6.57-7.18-6.57v6.57Zm3.18-9.08c4.44,0,5.44.11,6.1-.86a2.21,2.21,0,0,0-.1-2.47,1.94,1.94,0,0,0-1.2-.62c-.25,0-1-.05-2.32-.05h-2.48Zm3.9,16.06a14.86,14.86,0,1,1,14.86-14.85A14.84,14.84,0,0,1,821.06,464.7Zm0-27.91a13.06,13.06,0,1,0,13.06,13.06A13.08,13.08,0,0,0,821.06,436.79Z"/></svg>